:SAMPLES-PER-SECOND 30
:FULLY-SPECIFIED
:DEGREES
840
root  -14.8163 38.6394 31.676 -161.918 -79.264 154.803
RightUpLeg  -15.2621 -8.07918 -4.6297
RightLeg  -1.04238 -2.89972 1.80274
RightFoot  -7.86694 -0.404833 11.3527
RightToes  -1.33073e-015 0 -3.6325e-017
Spine  18.5312 -1.69767 -5.17031
Spine1  5.61196 -2.26909 -1.0022
HEad  61.4581 7.42642 -173.619
LeftShoulder1  0.659859 1.44894 -25.9277
LeftArm  -4.25401 -4.93231 -44.0633
LeftForeArm  22.5873 -32.9559 -5.99861
LeftHand  -0.301083 0.341556 6.96203
RightShoulder  -0.0667392 -3.70247 23.325
RightArm  6.48977 -10.7786 46.0511
RightForeArm  2.84349 10.5345 4.63897
RightHand  -0.483406 2.19954 -7.57051
LeftUpLeg  2.82393 3.76646 -2.03311
LeftLeg  23.6047 -2.91362 -1.05228
LeftFoot  -18.7787 0.185654 1.11425
LeftToes  -1.93726e-010 2.42366e-011 2.16268e-013
841
root  -13.5545 38.8385 31.8595 -165.459 -77.7089 158.488
RightUpLeg  -16.4855 -8.7844 -4.1445
RightLeg  2.92685 -6.47302 2.23461
RightFoot  -7.40224 -0.386606 9.74125
RightToes  -1.33073e-015 0 -3.6325e-017
Spine  18.6626 -1.43176 -4.20355
Spine1  5.60684 -1.42997 -2.78567
HEad  61.5227 3.24853 -173.975
LeftShoulder1  0.581829 1.72596 -26.5507
LeftArm  -3.1508 -5.71144 -42.6323
LeftForeArm  21.7224 -31.7606 -5.74996
LeftHand  -0.241692 0.337557 5.5931
RightShoulder  -0.090929 -3.78116 23.601
RightArm  7.78719 -10.1169 47.579
RightForeArm  1.80507 11.884 4.99784
RightHand  -0.572743 2.68183 -8.40705
LeftUpLeg  0.943955 5.09247 -1.7812
LeftLeg  22.8674 -2.70436 -0.913853
LeftFoot  -16.3912 0.142481 0.998527
LeftToes  -1.93726e-010 2.42366e-011 2.16268e-013
842
root  -12.4287 39.0727 31.9905 -169.963 -76.2625 162.766
RightUpLeg  -16.7148 -11.7127 -2.89698
RightLeg  9.12808 -6.31732 1.205
RightFoot  -7.42226 -0.333278 8.256
RightToes  -1.33073e-015 0 -3.6325e-017
Spine  18.8675 -1.37153 -2.94254
Spine1  5.31523 -0.811444 -4.45748
HEad  61.3652 -13.4976 -156.477
LeftShoulder1  0.537417 1.87819 -26.8881
LeftArm  -2.90309 -4.61456 -41.7746
LeftForeArm  20.6403 -30.2141 -5.43996
LeftHand  -0.198172 1.7729 6.1561
RightShoulder  -0.0941262 -3.78849 23.9058
RightArm  10.5401 -9.39604 48.4425
RightForeArm  3.44386 13.9923 5.22465
RightHand  -0.426096 2.23903 -6.69709
LeftUpLeg  0.190837 5.4783 -1.29283
LeftLeg  21.2812 -1.53311 -0.320931
LeftFoot  -13.8008 0.103208 0.980092
LeftToes  -1.93726e-010 2.42366e-011 2.16268e-013
843
root  -11.384 39.3239 32.0499 -172.932 -75.1271 165.397
RightUpLeg  -16.4482 -15.4597 -1.83146
RightLeg  16.7308 -2.60951 -0.952758
RightFoot  -7.47513 -0.286862 6.97807
RightToes  -1.33073e-015 0 -3.6325e-017
Spine  18.6246 -1.33158 -2.84628
Spine1  5.33296 -0.771986 -4.54943
HEad  40.51 -41.0356 -106.01
LeftShoulder1  0.548457 1.84394 -26.8715
LeftArm  -2.5349 -2.26075 -41.5917
LeftForeArm  18.1231 -27.3336 -4.89061
LeftHand  -0.191954 2.1654 6.63198
RightShoulder  -0.0513781 -3.64962 23.5406
RightArm  13.3783 -8.8398 49.5638
RightForeArm  4.18013 16.8058 5.03624
RightHand  -0.491728 3.17971 -6.89698
LeftUpLeg  0.187608 6.08099 -0.643375
LeftLeg  18.74 -1.01382 -0.0546301
LeftFoot  -11.0151 0.0641263 0.970127
LeftToes  -1.93726e-010 2.42366e-011 2.16268e-013
844
root  -10.4023 39.4981 32.0229 -174.078 -74.4964 166.634
RightUpLeg  -15.5701 -12.9122 -3.42519
RightLeg  24.6411 -3.8975 -2.20606
RightFoot  -7.95847 -0.241065 6.31498
RightToes  -1.33073e-015 0 -3.6325e-017
Spine  17.8246 -1.37564 -3.30773
Spine1  5.10813 -1.06185 -4.0337
HEad  -11.462 -43.7067 -10.853
LeftShoulder1  0.490307 2.01635 -26.8017
LeftArm  -1.61127 0.359335 -41.7817
LeftForeArm  16.121 -23.7799 -4.35462
LeftHand  -0.18566 2.22125 6.50621
RightShoulder  -0.0474834 -3.63645 23.5475
RightArm  15.5995 -8.61294 49.8647
RightForeArm  5.55598 20.0756 4.64966
RightHand  -0.44226 2.73615 -6.54201
LeftUpLeg  -0.337505 6.97293 0.128569
LeftLeg  16.5581 -1.43712 -0.315449
LeftFoot  -8.7845 0.0405288 0.549977
LeftToes  -1.93726e-010 2.42366e-011 2.16268e-013
845
root  -9.46871 39.5925 31.9553 -173.886 -73.9366 166.549
RightUpLeg  -14.2138 -10.9608 -5.53396
RightLeg  32.2353 -4.66681 -3.40697
RightFoot  -8.43937 -0.193991 5.397
RightToes  -1.33073e-015 0 -3.6325e-017
Spine  16.8164 -1.18907 -3.81362
Spine1  4.94273 -1.1371 -3.47119
HEad  -12.1704 -39.4829 5.24191
LeftShoulder1  0.428492 2.21902 -27.1818
LeftArm  -0.749799 2.19453 -41.6517
LeftForeArm  16.4772 -19.2896 -4.71461
LeftHand  -0.142334 2.66975 5.61353
RightShoulder  -0.0678516 -3.70593 23.2679
RightArm  14.8269 -9.33541 50.0148
RightForeArm  7.95975 23.8048 4.65298
RightHand  -0.332658 3.09963 -4.79443
LeftUpLeg  -0.916036 7.41563 0.547263
LeftLeg  14.6919 -1.27304 -0.515193
LeftFoot  -7.102 0.0469522 -0.105802
LeftToes  -1.93726e-010 2.42366e-011 2.16268e-013
846
root  -8.54841 39.5745 31.8513 -173.796 -73.4544 166.249
RightUpLeg  -11.7955 -9.54619 -7.86297
RightLeg  38.5015 -4.87381 -4.3894
RightFoot  -8.90111 -0.16257 4.77732
RightToes  -1.33073e-015 0 -3.6325e-017
Spine  15.9752 -1.08817 -3.64899
Spine1  4.95631 -1.01582 -3.8858
HEad  -10.8112 -41.9803 3.31519
LeftShoulder1  0.434449 2.20344 -27.2365
LeftArm  -2.39158 3.78822 -41.0891
LeftForeArm  19.6875 -14.6152 -6.36416
LeftHand  -0.0855044 3.68131 4.75041
RightShoulder  -0.142637 -3.94959 23.9039
RightArm  14.043 -9.61123 49.3543
RightForeArm  8.45603 27.2796 5.42375
RightHand  -0.405385 2.38254 -6.24653
LeftUpLeg  -1.47585 7.79119 1.12711
LeftLeg  13.6772 -1.14781 -0.802834
LeftFoot  -6.55457 0.108789 -1.70544
LeftToes  -1.93726e-010 2.42366e-011 2.16268e-013
